<svg xmlns="http://www.w3.org/2000/svg" viewBox="-157 98 36 36">
<style type="text/css">
	.st0{display:none;fill:#F37938;}
	.st1{fill:none;stroke:#D9D9D9;stroke-width:0.9538;}
	.st2{fill:#DADADA;}
</style>
<path class="st0" d="M-296,232c-9.9,0-18-8.1-18-18s8.1-18,18-18s18,8.1,18,18S-286.1,232-296,232z M-286.7,207.8
	c-0.4-0.4-1-0.4-1.4,0l-9.9,9.9l-4.9-5c-0.4-0.4-1-0.4-1.4,0c-0.4,0.4-0.4,1,0,1.4l5.7,5.7c0.4,0.4,1,0.4,1.4,0l10.6-10.6
	C-286.3,208.8-286.3,208.2-286.7,207.8z"/>
<ellipse class="st1" cx="-139" cy="116" rx="17.1" ry="17.2"/>
<path class="st2" d="M-130.1,111.4l-10.6,10.6c-0.4,0.4-1,0.4-1.4,0l-5.7-5.7c-0.4-0.4-0.4-1,0-1.4c0.4-0.4,1-0.4,1.4,0l4.9,4.9
	l9.9-9.9c0.4-0.4,1-0.4,1.4,0C-129.7,110.4-129.7,111.1-130.1,111.4z"/>
</svg>
