<svg xmlns="http://www.w3.org/2000/svg" viewBox="0 0 38 38">
    <style>
      .cls-1 {
        fill: #a1a6ab;
        fill-rule: evenodd;
      }
    </style>
  <path d="M19.000,38.000 C8.507,38.000 -0.000,29.494 -0.000,19.000 C-0.000,8.506 8.507,-0.000 19.000,-0.000 C29.493,-0.000 38.000,8.506 38.000,19.000 C38.000,29.494 29.493,38.000 19.000,38.000 ZM19.000,3.000 C10.164,3.000 3.000,10.163 3.000,19.000 C3.000,27.836 10.164,35.000 19.000,35.000 C27.837,35.000 35.000,27.836 35.000,19.000 C35.000,10.163 27.837,3.000 19.000,3.000 ZM13.136,19.500 L19.500,13.136 L25.864,19.500 L19.500,25.864 L13.136,19.500 Z" class="cls-1"/>
</svg>
