<svg xmlns="http://www.w3.org/2000/svg" viewBox="0 0 36 36">
    <style>
      .cls-1 {
        fill: #f37937;
        fill-rule: evenodd;
      }
    </style>
  <path d="M30.000,36.000 C30.000,36.000 28.531,36.000 26.000,36.000 C22.005,36.000 22.000,36.000 22.000,36.000 L22.000,26.000 C22.000,26.000 22.062,22.000 18.000,22.000 C14.027,22.000 14.000,26.000 14.000,26.000 L14.000,36.000 C14.000,36.000 13.588,36.000 10.000,36.000 C7.033,36.000 6.000,36.000 6.000,36.000 C2.686,36.000 0.000,33.314 0.000,30.000 L0.000,17.000 C0.000,14.724 2.000,13.000 2.000,13.000 L14.000,2.000 C14.000,2.000 16.050,0.000 18.000,0.000 C19.816,0.000 22.000,2.000 22.000,2.000 L34.000,13.000 C34.000,13.000 36.000,15.029 36.000,17.000 L36.000,30.000 C36.000,33.314 33.314,36.000 30.000,36.000 ZM33.000,18.000 C33.000,15.609 31.000,14.000 31.000,14.000 L20.000,4.000 C20.000,4.000 18.983,3.000 18.000,3.000 C17.037,3.000 16.000,4.000 16.000,4.000 L5.000,14.000 C5.000,14.000 3.000,15.865 3.000,18.000 L3.000,29.000 C3.000,31.790 4.210,33.000 7.000,33.000 C7.000,33.000 8.634,33.000 9.000,33.000 C10.908,33.000 11.000,33.000 11.000,33.000 L11.000,26.000 C11.000,26.000 11.131,19.000 18.000,19.000 C24.794,19.000 25.000,26.000 25.000,26.000 L25.000,33.000 C25.000,33.000 24.912,33.000 27.000,33.000 C27.700,33.000 29.000,33.000 29.000,33.000 C31.791,33.000 33.000,31.790 33.000,29.000 L33.000,18.000 ZM18.000,24.000 C19.105,24.000 20.000,24.896 20.000,26.000 L20.000,36.000 L16.000,36.000 L16.000,26.000 C16.000,24.896 16.895,24.000 18.000,24.000 Z" class="cls-1"/>
</svg>
