<svg xmlns="http://www.w3.org/2000/svg" viewBox="-154 99 41.9 34">
<style type="text/css">
	.st0{fill:#F37938;}
	.st1{fill:#F37938;}
</style>
<path class="st0" d="M-113.7,133c-1.6,0-3,0-4.6,0c-1.7,0-2.1-1.2-2.1-1.2l-12.6-25l-12.7,25c0,0-0.4,1.2-2.1,1.2c-1.6,0-3,0-4.6,0
	c-2.5,0-1.3-2-1.3-2l16-30.7c0,0,0.5-1.2,1.3-1.2c0.6,0,3.3,0,3.4,0c0,0,0,0,0,0c0,0,2.7,0,3.4,0c0.8,0,1.3,1.2,1.3,1.2l16,30.7
	C-112.4,130.9-111.1,133-113.7,133z"/>
<path class="st1" d="M-132.4,118.2l5.3,5.4c0.3,0.3,0.3,0.8,0,1.1l-5.4,5.5c-0.3,0.3-0.8,0.3-1,0l-5.3-5.4c-0.3-0.3-0.3-0.8,0-1.1
	l5.4-5.5C-133.1,117.9-132.7,117.9-132.4,118.2z"/>
</svg>
