<svg xmlns="http://www.w3.org/2000/svg" viewBox="0 0 27 27">
    <style>
      .cls-1 {
        fill: #9b9b9b;
        fill-rule: evenodd;
      }
    </style>
    <path d="M12.999,26.000 C5.820,26.000 -0.001,20.180 -0.001,13.000 C-0.001,5.820 5.820,-0.000 12.999,-0.000 C20.180,-0.000 26.000,5.820 26.000,13.000 C26.000,20.180 20.180,26.000 12.999,26.000 ZM12.999,2.302 C7.092,2.302 2.303,7.092 2.303,13.000 C2.303,18.908 7.092,23.698 12.999,23.698 C18.908,23.698 23.698,18.908 23.698,13.000 C23.698,7.092 18.908,2.302 12.999,2.302 ZM13.764,16.823 C13.764,16.836 11.470,16.823 11.470,16.823 C11.470,13.202 15.294,13.328 15.294,10.706 C15.294,10.262 15.309,8.412 12.999,8.412 C10.608,8.412 10.706,11.471 10.706,11.471 L8.412,11.471 C8.412,8.350 9.971,6.118 12.999,6.118 C16.156,6.118 17.588,7.726 17.588,10.706 C17.588,13.656 13.764,14.528 13.764,16.823 ZM12.447,18.348 L12.808,18.348 C13.344,18.348 13.778,18.783 13.778,19.319 L13.778,19.680 C13.778,20.216 13.344,20.651 12.808,20.651 L12.447,20.651 C11.911,20.651 11.476,20.216 11.476,19.680 L11.476,19.319 C11.476,18.783 11.911,18.348 12.447,18.348 Z" transform="translate(0.5 0.5)" class="cls-1"/>
</svg>
