<svg xmlns="http://www.w3.org/2000/svg" viewBox="-160 100.4 31 31.6">
<style type="text/css">
	.st0{fill:#F37938;}
</style>
<path class="st0" d="M-144.5,132c-8.6,0-15.5-7.1-15.5-15.8s6.9-15.8,15.5-15.8c8.6,0,15.5,7.1,15.5,15.8S-135.9,132-144.5,132z
	 M-144.5,102.1c-7.6,0-13.8,6.3-13.8,14.1s6.2,14.1,13.8,14.1c7.6,0,13.8-6.3,13.8-14.1S-136.9,102.1-144.5,102.1z"/>
<path class="st0" d="M-144.6,125.5c-1.1,0-2-0.9-2-2s0.9-2,2-2c1.1,0,2,0.9,2,2S-143.5,125.5-144.6,125.5L-144.6,125.5L-144.6,125.5
	z M-139.1,113.9c-0.4,0.6-1.3,1.5-2.6,2.6c-0.7,0.6-1.1,1-1.3,1.4c-0.2,0.3-0.2,1-0.2,1.9h-2.9c0-0.4,0-0.7,0-0.8
	c0-1,0.2-1.8,0.5-2.4s0.9-1.3,1.9-2.1c0.9-0.8,1.5-1.3,1.7-1.5c0.3-0.4,0.4-0.8,0.4-1.3c0-0.6-0.3-1.2-0.8-1.6
	c-0.5-0.5-1.2-0.7-2-0.7c-0.8,0-1.5,0.2-2,0.7c-0.6,0.5-1,1.5-1.1,2.2c-0.1,0.6-3,0.9-2.9-0.4c0-1.2,0.7-2.6,1.7-3.5
	c1.1-1,2.5-1.5,4.2-1.5c1.8,0,3.3,0.5,4.4,1.5c1.1,1,1.6,2.1,1.6,3.4C-138.5,112.6-138.7,113.2-139.1,113.9L-139.1,113.9
	L-139.1,113.9z"/>
</svg>
