<svg xmlns="http://www.w3.org/2000/svg" viewBox="0 0 22.469 22.469">
    <style>
      .cls-1 {
        fill: #ff0c0c;
        fill-rule: evenodd;
      }
    </style>
  <path d="M11.232,22.469 C5.029,22.469 0.000,17.440 0.000,11.237 C0.000,5.034 5.029,0.006 11.232,0.006 C17.435,0.006 22.463,5.034 22.463,11.237 C22.463,17.440 17.435,22.469 11.232,22.469 ZM12.789,19.648 L12.441,8.028 L11.003,8.028 L10.632,19.648 L12.789,19.648 ZM12.719,4.132 C12.441,3.888 12.093,3.754 11.699,3.754 C11.304,3.754 10.980,3.888 10.725,4.132 C10.446,4.400 10.307,4.711 10.307,5.090 C10.307,5.468 10.446,5.780 10.725,6.025 C10.980,6.292 11.304,6.403 11.699,6.403 C12.116,6.403 12.441,6.292 12.719,6.025 C12.974,5.780 13.113,5.468 13.113,5.090 C13.113,4.689 12.974,4.377 12.719,4.132 Z" class="cls-1"/>
</svg>
