<svg xmlns="http://www.w3.org/2000/svg" viewBox="0 0 32 32">
    <style>
      .cls-1 {
        fill: #ef4a2f;
        fill-rule: evenodd;
      }
    </style>
  <path d="M16.000,32.000 C7.164,32.000 -0.000,24.836 -0.000,16.000 C-0.000,7.164 7.164,0.000 16.000,0.000 C24.836,0.000 32.000,7.164 32.000,16.000 C32.000,24.836 24.836,32.000 16.000,32.000 ZM18.000,8.000 C18.000,6.895 17.105,6.000 16.000,6.000 C14.895,6.000 14.000,6.895 14.000,8.000 L14.000,16.000 C14.000,17.104 14.895,18.000 16.000,18.000 C17.105,18.000 18.000,17.104 18.000,16.000 L18.000,8.000 ZM16.000,21.000 C14.895,21.000 14.000,21.895 14.000,23.000 C14.000,24.105 14.895,25.000 16.000,25.000 C17.105,25.000 18.000,24.105 18.000,23.000 C18.000,21.895 17.105,21.000 16.000,21.000 Z" class="cls-1"/>
</svg>
