<svg xmlns="http://www.w3.org/2000/svg" viewBox="0 0 39 33">
    <style>
      .cls-1 {
        fill: #f37937;
        fill-rule: evenodd;
      }
    </style>
  <path d="M36.000,10.000 C35.639,10.000 35.297,9.926 34.977,9.809 C34.731,19.343 27.010,27.000 17.500,27.000 C7.835,27.000 0.000,19.096 0.000,9.346 L0.000,-0.000 L35.000,-0.000 L35.000,4.184 C35.314,4.072 35.647,4.000 36.000,4.000 C37.657,4.000 39.000,5.343 39.000,7.000 C39.000,8.657 37.657,10.000 36.000,10.000 ZM32.000,3.000 L3.000,3.000 L3.000,10.269 C3.000,17.852 9.492,24.000 17.500,24.000 C25.508,24.000 32.000,17.852 32.000,10.269 L32.000,3.000 ZM8.500,30.000 L25.500,30.000 C26.328,30.000 27.000,30.671 27.000,31.500 C27.000,32.328 26.328,33.000 25.500,33.000 L8.500,33.000 C7.672,33.000 7.000,32.328 7.000,31.500 C7.000,30.671 7.672,30.000 8.500,30.000 Z" class="cls-1"/>
</svg>
