<svg xmlns="http://www.w3.org/2000/svg" viewBox="0 0 23.97 23.438">
    <style>
      .cls-1 {
        fill: #969696;
        opacity: 0.5;
        fill-rule: evenodd;
      }
    </style>
  <path d="M4.101,15.631 C0.831,12.435 0.831,7.236 4.101,4.041 C5.686,2.491 7.792,1.639 10.034,1.639 C12.274,1.639 14.379,2.491 15.964,4.041 C19.235,7.236 19.235,12.435 15.964,15.631 C14.379,17.178 12.274,18.031 10.032,18.031 C7.792,18.031 5.686,17.178 4.101,15.631 L4.101,15.631 L4.101,15.631 ZM23.968,22.292 L17.683,16.152 C21.027,12.288 20.879,6.523 17.151,2.881 C15.184,0.960 12.609,0.000 10.034,0.000 C7.458,0.000 4.881,0.960 2.916,2.881 C-1.015,6.721 -1.015,12.948 2.916,16.790 C4.881,18.710 7.458,19.671 10.032,19.671 C12.342,19.671 14.627,18.856 16.497,17.311 L22.783,23.451 L23.968,22.292 L23.968,22.292 Z" class="cls-1"/>
</svg>
