<svg xmlns="http://www.w3.org/2000/svg" viewBox="0 0 140 140">
    <style>
      .cls-1 {
        fill: #3bb470;
        fill-rule: evenodd;
      }
    </style>
  <path d="M70.000,139.969 C31.340,139.969 -0.000,108.629 -0.000,69.969 C-0.000,31.309 31.340,-0.031 70.000,-0.031 C108.660,-0.031 140.000,31.309 140.000,69.969 C140.000,108.629 108.660,139.969 70.000,139.969 ZM70.000,7.969 C35.758,7.969 8.000,35.727 8.000,69.969 C8.000,104.210 35.758,131.969 70.000,131.969 C104.242,131.969 132.000,104.210 132.000,69.969 C132.000,35.727 104.242,7.969 70.000,7.969 ZM69.879,94.380 C67.926,96.333 64.761,96.333 62.808,94.380 L41.594,73.166 C39.642,71.214 39.642,68.048 41.594,66.095 C43.547,64.142 46.713,64.142 48.665,66.095 L66.343,83.773 L95.335,54.781 C97.287,52.828 100.453,52.828 102.405,54.781 C104.358,56.734 104.358,59.900 102.405,61.852 L69.879,94.380 Z" class="cls-1"/>
</svg>
