<svg xmlns="http://www.w3.org/2000/svg" viewBox="0 0 34 34">
    <style>
      .cls-1 {
        fill: #f37937;
        fill-rule: evenodd;
      }
    </style>
  <path d="M-0.000,34.000 C-0.000,34.000 4.229,21.000 9.000,21.000 C9.307,21.000 9.644,21.000 10.000,21.000 L17.000,33.000 L23.000,21.000 C24.220,21.000 25.000,21.000 25.000,21.000 C30.335,21.000 34.000,34.000 34.000,34.000 L-0.000,34.000 ZM17.000,29.000 L14.000,24.000 L20.000,24.000 L17.000,29.000 ZM17.000,20.000 C11.477,20.000 7.000,15.523 7.000,10.000 C7.000,4.477 11.477,0.000 17.000,0.000 C22.523,0.000 27.000,4.477 27.000,10.000 C27.000,15.523 22.523,20.000 17.000,20.000 Z" class="cls-1"/>
</svg>
